<?xml version="1.0" encoding="iso-8859-1"?>
<!-- Uploaded to: SVG Repo, www.svgrepo.com, Generator: SVG Repo Mixer Tools -->
<svg fill="#000000" version="1.1" id="Capa_1" xmlns="http://www.w3.org/2000/svg" xmlns:xlink="http://www.w3.org/1999/xlink" 
	 viewBox="0 0 60 60" xml:space="preserve">
<g>
	<g>
		<path d="M59,0H1C0.4,0,0,0.4,0,1v46c0,0.6,0.4,1,1,1h22v10h-3v2h4h12h4v-2h-3V48h22c0.6,0,1-0.4,1-1V1C60,0.4,59.6,0,59,0z M35,58
			H25V48h10V58z M58,46H36H24H2v-8h3h22h6h22h3V46z M33.8,16.3l-2.9-7.6c-0.1-0.3-0.5-0.6-0.9-0.6s-0.8,0.2-0.9,0.6l-2.9,7.6
			C26.1,16.5,26,16.7,26,17v19H6V6h48v30H34V17C34,16.7,33.9,16.5,33.8,16.3z M28.4,16l1.5-4.2l1.6,4.2H28.4z M29,18v18h-1V18H29z
			 M31,18h1v18h-1V18z M58,36h-2V5c0-0.6-0.4-1-1-1H5C4.4,4,4,4.4,4,5v31H2V2h56V36z"/>
		<path d="M51,25v-8c0-0.6-0.4-1-1-1H38v1v1v3h2v-3h4v3h2v-3h3v6H38v2h12C50.6,26,51,25.6,51,25z"/>
		<path d="M9,17v8c0,0.6,0.4,1,1,1h12v-2H11v-6h3v3h2v-3h4v3h2v-3v-1v-1H10C9.4,16,9,16.4,9,17z"/>
		<rect x="12" y="28" width="2" height="2"/>
		<rect x="16" y="28" width="2" height="2"/>
		<rect x="20" y="28" width="2" height="2"/>
		<rect x="38" y="28" width="2" height="2"/>
		<rect x="42" y="28" width="2" height="2"/>
		<rect x="46" y="28" width="2" height="2"/>
		<rect x="38" y="12" width="2" height="2"/>
		<rect x="42" y="12" width="2" height="2"/>
		<rect x="46" y="12" width="2" height="2"/>
		<rect x="12" y="12" width="2" height="2"/>
		<rect x="16" y="12" width="2" height="2"/>
		<rect x="20" y="12" width="2" height="2"/>
	</g>
</g>
</svg>